<svg width="133" height="24" viewBox="0 0 133 24" fill="none" xmlns="http://www.w3.org/2000/svg">
<g clip-path="url(#clip0_1_303)">
<path d="M21.2273 0H3.77273C1.96525 0 0.5 1.46525 0.5 3.27273V20.7273C0.5 22.5347 1.96525 24 3.77273 24H21.2273C23.0347 24 24.5 22.5347 24.5 20.7273V3.27273C24.5 1.46525 23.0347 0 21.2273 0Z" fill="#D6EF0E"/>
<path d="M16.3018 10.5791L16.0605 12.6695C16.0505 12.7649 16.0058 12.8533 15.9349 12.9179C15.864 12.9825 15.7718 13.0189 15.6759 13.02H13.4941L13.4832 19.2177C13.4839 19.2912 13.4557 19.362 13.4047 19.4148C13.3537 19.4676 13.2839 19.4982 13.2105 19.5H11C10.9633 19.5 10.9269 19.4926 10.8931 19.4782C10.8592 19.4639 10.8287 19.4428 10.8032 19.4163C10.7777 19.3898 10.7579 19.3584 10.7448 19.3241C10.7318 19.2897 10.7258 19.2531 10.7273 19.2164V13.02H9.09093C9.03953 13.0195 8.98875 13.0088 8.94147 12.9887C8.89419 12.9685 8.85135 12.9392 8.81538 12.9025C8.77942 12.8658 8.75105 12.8223 8.73187 12.7746C8.7127 12.7269 8.70311 12.6759 8.70365 12.6245L8.69547 10.5341C8.69475 10.4825 8.7042 10.4313 8.72327 10.3834C8.74234 10.3355 8.77067 10.2918 8.80663 10.2548C8.84259 10.2178 8.88549 10.1883 8.93287 10.1679C8.98024 10.1475 9.03117 10.1366 9.08275 10.1359H10.7273V8.11773C10.7273 5.775 12.1182 4.5 14.1582 4.5H15.83C15.8817 4.50053 15.9328 4.51127 15.9803 4.53158C16.0279 4.5519 16.0709 4.5814 16.107 4.6184C16.1431 4.65539 16.1716 4.69915 16.1907 4.74716C16.2099 4.79517 16.2194 4.84649 16.2187 4.89818V6.65727C16.2194 6.70896 16.2099 6.76028 16.1907 6.8083C16.1716 6.85631 16.1431 6.90007 16.107 6.93706C16.0709 6.97405 16.0279 7.00355 15.9803 7.02387C15.9328 7.04419 15.8817 7.05492 15.83 7.05545H14.8046C13.6959 7.05545 13.4805 7.60091 13.4805 8.38909V10.1359H15.9173C15.9727 10.1366 16.0274 10.149 16.0776 10.1723C16.1279 10.1957 16.1727 10.2294 16.209 10.2712C16.2453 10.3131 16.2724 10.3622 16.2884 10.4152C16.3044 10.4683 16.309 10.5241 16.3018 10.5791Z" fill="#090F1D"/>
</g>
<g clip-path="url(#clip1_1_303)">
<path d="M57.2273 0H39.7727C37.9652 0 36.5 1.46525 36.5 3.27273V20.7273C36.5 22.5347 37.9652 24 39.7727 24H57.2273C59.0347 24 60.5 22.5347 60.5 20.7273V3.27273C60.5 1.46525 59.0347 0 57.2273 0Z" fill="white"/>
<path d="M55.0373 6.20455L54.7891 6.29455L41.3191 11.1477C41.2237 11.1772 41.1407 11.2376 41.0832 11.3193C41.0258 11.4011 40.997 11.4996 41.0016 11.5994C41.0061 11.6992 41.0436 11.7947 41.1082 11.8709C41.1728 11.9471 41.2609 11.9997 41.3587 12.0205L44.8455 12.975L45.4959 14.8841L46.1464 16.7932C46.1838 16.8868 46.2434 16.9698 46.3201 17.0351C46.3969 17.1004 46.4884 17.146 46.5868 17.1679C46.6851 17.1898 46.7874 17.1874 46.8846 17.1608C46.9818 17.1342 47.071 17.0843 47.1446 17.0155L48.9459 15.3136L52.4832 17.7123C52.9155 18.0068 53.5318 17.7886 53.6423 17.3032L55.985 6.95182C56.0996 6.43909 55.5596 6.01773 55.0373 6.20455ZM53.3178 8.50227L47.2318 13.4768L46.9455 13.7114C46.8826 13.7612 46.8415 13.8336 46.8309 13.9132L46.7668 14.4423L46.5909 15.9286C46.5924 15.9467 46.5866 15.9646 46.5748 15.9784C46.5631 15.9923 46.5463 16.0008 46.5282 16.0023C46.5101 16.0037 46.4922 15.9979 46.4784 15.9862C46.4646 15.9744 46.456 15.9576 46.4546 15.9395L45.9596 14.4545L45.4482 12.9341C45.4266 12.8657 45.4295 12.792 45.4563 12.7255C45.4832 12.6591 45.5324 12.6041 45.5955 12.57L51.9282 8.94L53.12 8.25818C53.2932 8.15727 53.4705 8.37682 53.3178 8.50227Z" fill="#090F1D"/>
</g>
<g clip-path="url(#clip2_1_303)">
<path d="M93.2273 0H75.7727C73.9652 0 72.5 1.46525 72.5 3.27273V20.7273C72.5 22.5347 73.9652 24 75.7727 24H93.2273C95.0347 24 96.5 22.5347 96.5 20.7273V3.27273C96.5 1.46525 95.0347 0 93.2273 0Z" fill="white"/>
<path d="M91.9714 7.46047C91.6154 7.9923 91.182 8.468 90.6855 8.87183C90.6211 8.92305 90.5691 8.98817 90.5335 9.06232C90.4978 9.13647 90.4794 9.21773 90.4796 9.30001V9.35047C90.4739 10.4221 90.2772 11.4842 89.8987 12.4868C89.5087 13.5377 88.9296 14.5083 88.19 15.3505C87.2006 16.4784 85.9261 17.3196 84.5 17.7859C83.5603 18.0909 82.5779 18.2437 81.59 18.2386C80.0255 18.237 78.4891 17.8221 77.1364 17.0359C77.0879 17.0084 77.0499 16.9658 77.0279 16.9145C77.006 16.8633 77.0015 16.8063 77.015 16.7523C77.0287 16.6988 77.06 16.6515 77.1037 16.6179C77.1475 16.5843 77.2012 16.5663 77.2564 16.5668H77.63C78.8192 16.5666 79.9813 16.211 80.9668 15.5455C80.3793 15.4494 79.8296 15.1935 79.3779 14.8058C78.9262 14.4181 78.5899 13.9135 78.4059 13.3473C78.3969 13.3194 78.3953 13.2896 78.4013 13.2609C78.4072 13.2321 78.4206 13.2055 78.44 13.1835C78.4594 13.1615 78.4841 13.1449 78.5119 13.1353C78.5396 13.1258 78.5694 13.1237 78.5982 13.1291C78.778 13.1633 78.9606 13.1806 79.1437 13.1809H79.2118C78.6424 12.9193 78.161 12.4982 77.8258 11.9687C77.4906 11.4392 77.316 10.8239 77.3232 10.1973C77.3236 10.1679 77.3316 10.1391 77.3464 10.1137C77.3612 10.0883 77.3823 10.0672 77.4077 10.0523C77.4331 10.0375 77.4619 10.0295 77.4913 10.0291C77.5207 10.0287 77.5497 10.0359 77.5755 10.05C77.8065 10.179 78.0543 10.2754 78.3118 10.3364C77.8019 9.83224 77.4737 9.17313 77.3787 8.46239C77.2837 7.75165 77.4272 7.02948 77.7868 6.4091C77.8006 6.38624 77.8196 6.36697 77.8423 6.35287C77.865 6.33877 77.8907 6.33024 77.9173 6.32798C77.9439 6.32572 77.9707 6.32979 77.9954 6.33986C78.0201 6.34993 78.0421 6.36572 78.0596 6.38592C78.7738 7.26878 79.658 7.99916 80.6599 8.53371C81.6618 9.06826 82.7608 9.39609 83.8918 9.49774H83.9041C83.9209 9.49719 83.9373 9.49329 83.9526 9.48626C83.9678 9.47923 83.9815 9.46923 83.9927 9.45683C84.0036 9.44443 84.0118 9.4299 84.0167 9.41416C84.0216 9.39843 84.0232 9.38185 84.0214 9.36547C83.9792 8.96945 84.005 8.56913 84.0978 8.18183C84.179 7.84276 84.3174 7.51998 84.5068 7.22728C84.9045 6.60277 85.5102 6.13905 86.2168 5.91819C86.5483 5.81427 86.8936 5.76094 87.2409 5.76001C88.0287 5.75923 88.7896 6.04633 89.3805 6.56728C89.4558 6.63419 89.5525 6.67193 89.6532 6.67365C89.6864 6.6731 89.7193 6.66852 89.7514 6.66001C90.3069 6.51947 90.8392 6.29948 91.3318 6.00683C91.3615 5.9897 91.3956 5.9819 91.4298 5.98444C91.4639 5.98699 91.4965 5.99977 91.5233 6.02111C91.5501 6.04245 91.5698 6.07137 91.58 6.10409C91.5901 6.13681 91.5901 6.17182 91.58 6.20456C91.4147 6.72067 91.1221 7.18683 90.7291 7.56001C91.0836 7.47535 91.4295 7.3585 91.7627 7.21092C91.7963 7.19595 91.8339 7.19235 91.8697 7.20065C91.9056 7.20895 91.9377 7.2287 91.9613 7.25692C91.9849 7.28513 91.9986 7.32027 92.0005 7.357C92.0023 7.39373 91.9921 7.43006 91.9714 7.46047Z" fill="#090F1D"/>
</g>
<g clip-path="url(#clip3_1_303)">
<path d="M129.227 0H111.773C109.965 0 108.5 1.46525 108.5 3.27273V20.7273C108.5 22.5347 109.965 24 111.773 24H129.227C131.035 24 132.5 22.5347 132.5 20.7273V3.27273C132.5 1.46525 131.035 0 129.227 0Z" fill="white"/>
<path d="M117.145 6.54545C117.145 6.95001 117.026 7.34547 116.801 7.68185C116.576 8.01822 116.257 8.28039 115.883 8.43521C115.509 8.59002 115.098 8.63053 114.701 8.55161C114.304 8.47268 113.94 8.27787 113.654 7.99181C113.368 7.70575 113.173 7.34128 113.094 6.9445C113.015 6.54772 113.055 6.13645 113.21 5.76269C113.365 5.38894 113.627 5.06948 113.964 4.84472C114.3 4.61996 114.695 4.5 115.1 4.5C115.643 4.5 116.163 4.7155 116.546 5.0991C116.93 5.4827 117.145 6.00297 117.145 6.54545ZM116.682 9.95455V18.9914C116.682 19.058 116.669 19.1241 116.644 19.1858C116.619 19.2475 116.582 19.3036 116.535 19.3509C116.488 19.3981 116.432 19.4356 116.37 19.4612C116.309 19.4868 116.243 19.5 116.176 19.5H114.02C113.953 19.5002 113.887 19.4872 113.826 19.4618C113.764 19.4363 113.708 19.399 113.661 19.3518C113.614 19.3047 113.576 19.2487 113.551 19.1871C113.526 19.1254 113.513 19.0594 113.513 18.9927V9.95455C113.513 9.82001 113.566 9.69098 113.661 9.59585C113.756 9.50072 113.885 9.44727 114.02 9.44727H116.176C116.31 9.44763 116.439 9.50124 116.534 9.59633C116.629 9.69142 116.682 9.82024 116.682 9.95455ZM127.951 14.6591V19.0336C127.951 19.0949 127.939 19.1557 127.916 19.2123C127.892 19.269 127.858 19.3205 127.815 19.3638C127.771 19.4071 127.72 19.4415 127.663 19.4649C127.607 19.4882 127.546 19.5002 127.485 19.5H125.166C125.105 19.5002 125.044 19.4882 124.988 19.4649C124.931 19.4415 124.88 19.4071 124.836 19.3638C124.793 19.3205 124.759 19.269 124.735 19.2123C124.712 19.1557 124.7 19.0949 124.7 19.0336V14.7941C124.7 14.1614 124.885 12.0232 123.046 12.0232C121.621 12.0232 121.33 13.4864 121.273 14.1436V19.0336C121.273 19.1562 121.225 19.2738 121.139 19.361C121.053 19.4483 120.936 19.4982 120.814 19.5H118.575C118.513 19.5 118.453 19.4879 118.396 19.4645C118.34 19.441 118.288 19.4066 118.245 19.3633C118.202 19.32 118.168 19.2686 118.145 19.212C118.121 19.1554 118.109 19.0948 118.11 19.0336V9.915C118.109 9.85382 118.121 9.79321 118.145 9.73663C118.168 9.68006 118.202 9.62864 118.245 9.58531C118.288 9.54199 118.34 9.50762 118.396 9.48416C118.453 9.46071 118.513 9.44864 118.575 9.44864H120.814C120.937 9.44864 121.056 9.49777 121.143 9.58523C121.231 9.67269 121.28 9.79131 121.28 9.915V10.7032C121.809 9.90955 122.593 9.29727 124.266 9.29727C127.973 9.29727 127.951 12.7582 127.951 14.6591Z" fill="#090F1D"/>
</g>
<defs>
<clipPath id="clip0_1_303">
<rect width="24" height="24" fill="white" transform="translate(0.5)"/>
</clipPath>
<clipPath id="clip1_1_303">
<rect width="24" height="24" fill="white" transform="translate(36.5)"/>
</clipPath>
<clipPath id="clip2_1_303">
<rect width="24" height="24" fill="white" transform="translate(72.5)"/>
</clipPath>
<clipPath id="clip3_1_303">
<rect width="24" height="24" fill="white" transform="translate(108.5)"/>
</clipPath>
</defs>
</svg>
